<?xml version="1.0" standalone="no"?>
<!DOCTYPE svg PUBLIC "-//W3C//DTD SVG 20010904//EN"
 "http://www.w3.org/TR/2001/REC-SVG-20010904/DTD/svg10.dtd">
<svg version="1.0" xmlns="http://www.w3.org/2000/svg"
 width="504.000000pt" height="369.000000pt" viewBox="0 0 504.000000 369.000000"
 preserveAspectRatio="xMidYMid meet">

<g transform="translate(0.000000,369.000000) scale(0.100000,-0.100000)"
fill="#000000" stroke="none">
<path d="M1150 3229 c-632 -53 -808 -68 -823 -75 -28 -11 -39 -50 -26 -96 5
-22 108 -252 228 -512 120 -259 244 -527 276 -596 103 -225 357 -772 410 -886
87 -185 114 -193 420 -115 110 27 328 84 485 125 156 41 285 74 286 73 1 -1
29 -54 64 -117 193 -354 430 -759 466 -799 39 -43 44 -45 95 -45 68 1 202 47
1306 447 342 125 349 129 322 178 -6 13 -135 189 -286 392 -151 203 -273 370
-271 371 2 2 136 38 298 81 332 87 363 98 358 120 -2 9 -129 171 -283 361
-183 227 -291 352 -311 361 -29 14 -55 11 -375 -42 -189 -31 -355 -62 -369
-69 -14 -6 -26 -20 -28 -31 -2 -13 39 -79 110 -180 230 -326 340 -484 339
-491 0 -4 -247 -67 -548 -139 -812 -196 -791 -191 -807 -174 -8 8 -255 419
-551 914 -295 495 -547 910 -559 922 -27 29 -78 34 -226 22z m265 -359 c78
-135 224 -387 325 -560 101 -173 202 -349 225 -390 23 -41 110 -192 194 -335
118 -203 148 -262 138 -271 -6 -7 -194 -55 -417 -108 -223 -54 -415 -100 -428
-103 -19 -4 -25 2 -46 48 -13 30 -66 142 -118 249 -133 273 -367 755 -594
1224 -107 219 -194 405 -194 412 0 8 3 14 8 15 4 0 167 15 362 34 195 18 366
32 380 31 21 -1 43 -34 165 -246z m2730 -488 c6 -4 66 -79 135 -167 69 -88
157 -200 197 -250 40 -49 73 -95 73 -102 0 -14 8 -11 -300 -88 -124 -31 -232
-58 -241 -61 -12 -3 -63 60 -191 233 -215 294 -242 333 -233 341 7 8 483 99
525 100 14 1 30 -2 35 -6z m-183 -846 c7 -7 57 -74 110 -147 53 -74 158 -217
231 -319 74 -101 133 -190 130 -197 -3 -6 -68 -33 -146 -59 -78 -26 -379 -127
-669 -225 -289 -99 -535 -179 -545 -179 -11 0 -27 8 -35 18 -23 25 -448 751
-448 763 0 4 55 21 123 38 67 18 205 54 307 81 102 27 320 83 485 126 165 42
329 84 365 94 82 23 76 22 92 6z"/>
</g>
</svg>
