<?xml version="1.0" standalone="no"?>
<!DOCTYPE svg PUBLIC "-//W3C//DTD SVG 20010904//EN"
 "http://www.w3.org/TR/2001/REC-SVG-20010904/DTD/svg10.dtd">
<svg version="1.0" xmlns="http://www.w3.org/2000/svg"
 width="400.000000pt" height="400.000000pt" viewBox="0 0 400.000000 400.000000"
 preserveAspectRatio="xMidYMid meet">

<g transform="translate(0.000000,400.000000) scale(0.100000,-0.100000)"
fill="#000000" stroke="none">
<path d="M2242 3042 c-8 -2 -9 -9 -2 -21 5 -10 6 -21 3 -25 -3 -3 0 -6 8 -6
12 0 12 -2 -1 -10 -8 -5 -113 -9 -234 -10 -260 -1 -410 -12 -606 -44 -378 -63
-706 -182 -950 -344 -47 -31 -129 -100 -182 -154 -88 -89 -120 -116 -103 -88
3 6 1 10 -4 10 -6 0 -10 3 -10 8 4 21 -2 31 -15 26 -8 -3 -12 -12 -9 -20 3 -8
-1 -14 -9 -14 -18 0 -81 -118 -104 -195 -40 -138 -12 -320 73 -464 186 -315
678 -575 1288 -681 310 -53 774 -65 1074 -26 577 76 1039 263 1307 530 103
104 155 178 198 285 29 71 31 84 30 206 0 115 -3 138 -26 197 -68 178 -191
318 -403 460 -276 184 -727 330 -1140 368 -66 6 -132 12 -146 13 -14 2 -31 1
-37 -1z m-294 -239 c-32 -2 -86 -2 -120 0 -35 2 -9 3 57 3 66 0 94 -1 63 -3z
m80 -30 c6 -11 4 -47 -4 -93 -8 -41 -12 -86 -9 -100 4 -19 3 -21 -5 -10 -9 13
-10 13 -10 0 0 -8 -3 -24 -6 -36 -5 -21 -2 -21 153 -28 217 -10 212 -10 205
-20 -3 -5 2 -6 12 -3 11 5 15 3 10 -5 -5 -8 -2 -9 10 -5 9 4 15 3 12 -2 -3 -4
6 -14 19 -21 14 -7 32 -24 40 -37 9 -13 20 -21 25 -18 6 4 7 -1 3 -11 -3 -10
-2 -15 3 -12 19 12 16 -169 -4 -265 -45 -209 -64 -316 -56 -328 4 -7 3 -10 -3
-6 -6 4 -12 -11 -16 -39 -8 -77 -21 -84 -161 -84 -67 0 -128 5 -136 10 -10 6
-15 26 -15 64 0 30 3 52 7 50 4 -2 10 17 13 43 4 27 13 75 20 108 28 126 55
294 49 308 -8 21 -37 27 -145 27 l-95 0 -53 -272 c-29 -150 -56 -284 -60 -298
-8 -25 -8 -25 -150 -28 -120 -2 -142 0 -147 13 -5 13 4 85 22 172 3 17 -8 10
-43 -29 -27 -28 -47 -55 -45 -60 1 -5 -1 -7 -6 -4 -9 6 -65 -28 -58 -35 3 -3
-3 -5 -12 -6 -9 -1 -44 -12 -77 -24 -50 -19 -87 -23 -225 -28 l-165 -6 -12
-55 c-8 -30 -14 -85 -16 -122 -1 -37 -5 -59 -9 -50 -6 14 -7 14 -7 -3 -2 -40
-19 -45 -157 -45 -158 0 -161 2 -144 84 6 31 9 66 5 78 -5 17 -4 19 3 9 8 -11
12 -2 17 35 4 27 18 101 32 164 13 63 25 140 26 171 1 32 5 52 8 47 9 -15 61
269 54 295 -5 17 -4 19 4 7 6 -8 11 -10 11 -4 0 6 7 51 15 99 9 48 13 97 10
109 -2 11 -2 15 1 8 5 -10 10 -8 21 8 15 21 17 22 312 16 333 -6 351 -7 343
-20 -3 -5 2 -6 12 -3 11 5 15 3 10 -5 -5 -8 -2 -9 10 -5 10 4 15 3 11 -3 -3
-6 -2 -10 3 -10 5 0 31 -19 57 -42 27 -24 51 -43 54 -43 3 0 5 -3 4 -7 -2 -4
6 -26 17 -49 17 -40 19 -41 24 -19 3 14 24 122 47 240 23 118 46 223 51 233 8
15 25 17 143 17 118 0 135 -2 143 -17z m-321 -95 c-3 -8 -6 -5 -6 6 -1 11 2
17 5 13 3 -3 4 -12 1 -19z m-534 -155 c-68 -2 -178 -2 -245 0 -68 1 -13 3 122
3 135 0 190 -2 123 -3z m1800 0 c-67 -2 -179 -2 -250 0 -70 1 -15 3 122 3 138
0 195 -2 128 -3z m198 -24 c30 -7 64 -12 76 -13 11 0 19 -5 15 -10 -3 -5 3 -6
14 -2 10 4 15 4 11 0 -10 -10 44 -44 57 -37 6 3 8 3 4 -2 -4 -4 8 -26 27 -48
19 -22 35 -45 35 -49 0 -5 4 -6 10 -3 6 4 7 -1 3 -11 -3 -10 -2 -15 3 -12 5 3
11 -15 13 -41 10 -98 1 -276 -12 -257 -5 6 -7 2 -4 -12 3 -12 1 -20 -3 -17
-10 6 -32 -54 -24 -66 3 -5 0 -8 -8 -7 -7 2 -12 -5 -12 -14 1 -10 -1 -16 -5
-15 -4 1 -23 -16 -42 -38 -18 -22 -44 -48 -56 -58 -13 -10 -22 -23 -20 -30 1
-6 -5 -12 -13 -12 -24 -2 -50 -16 -45 -25 3 -5 0 -12 -6 -16 -8 -5 -9 -3 -4 6
5 8 3 11 -6 8 -8 -3 -13 -11 -11 -17 1 -7 -2 -10 -7 -7 -5 4 -30 1 -55 -6 -25
-7 -42 -15 -37 -18 5 -3 -70 -7 -167 -8 -98 -2 -178 -5 -179 -6 -1 -1 -14 -60
-28 -131 -14 -71 -31 -133 -38 -137 -16 -10 -258 -10 -274 0 -8 5 -12 31 -10
75 1 36 4 61 6 54 6 -17 62 264 57 286 -3 11 -2 16 2 12 7 -7 33 120 35 177 1
20 5 34 8 32 7 -4 33 140 33 188 0 21 3 33 6 28 3 -5 16 45 29 113 12 67 27
130 32 140 9 15 33 17 273 17 159 0 285 -5 317 -11z m499 -14 c13 -14 21 -25
18 -25 -2 0 -15 11 -28 25 -13 14 -21 25 -18 25 2 0 15 -11 28 -25z m-2003
-17 c-3 -8 -6 -5 -6 6 -1 11 2 17 5 13 3 -3 4 -12 1 -19z m890 -20 c-3 -8 -6
-5 -6 6 -1 11 2 17 5 13 3 -3 4 -12 1 -19z m1204 -55 c13 -16 12 -17 -3 -4
-17 13 -22 21 -14 21 2 0 10 -8 17 -17z m156 -405 c-2 -13 -4 -5 -4 17 -1 22
1 32 4 23 2 -10 2 -28 0 -40z m-2040 -150 c-3 -8 -6 -5 -6 6 -1 11 2 17 5 13
3 -3 4 -12 1 -19z m2004 -25 c-12 -20 -14 -14 -5 12 4 9 9 14 11 11 3 -2 0
-13 -6 -23z m-3254 -55 c-3 -8 -6 -5 -6 6 -1 11 2 17 5 13 3 -3 4 -12 1 -19z
m1460 -30 c-3 -8 -6 -5 -6 6 -1 11 2 17 5 13 3 -3 4 -12 1 -19z m-570 -40 c-3
-7 -5 -2 -5 12 0 14 2 19 5 13 2 -7 2 -19 0 -25z m2283 -22 c0 -2 -8 -10 -17
-17 -16 -13 -17 -12 -4 4 13 16 21 21 21 13z m-763 -12 c-3 -3 -12 -4 -19 -1
-8 3 -5 6 6 6 11 1 17 -2 13 -5z m-2100 -26 c-3 -8 -6 -5 -6 6 -1 11 2 17 5
13 3 -3 4 -12 1 -19z m236 15 c-7 -2 -21 -2 -30 0 -10 3 -4 5 12 5 17 0 24 -2
18 -5z m1725 0 c-32 -2 -84 -2 -115 0 -32 2 -6 3 57 3 63 0 89 -1 58 -3z m822
-68 c-24 -25 -46 -45 -49 -45 -3 0 15 20 39 45 24 25 46 45 49 45 3 0 -15 -20
-39 -45z m-80 -69 c0 -2 -8 -10 -17 -17 -16 -13 -17 -12 -4 4 13 16 21 21 21
13z m-1057 -143 c-35 -2 -91 -2 -125 0 -35 2 -7 3 62 3 69 0 97 -1 63 -3z
m756 -47 c-2 -2 -15 -9 -29 -15 -24 -11 -24 -11 -6 3 16 13 49 24 35 12z
m-602 -202 c-3 -3 -12 -4 -19 -1 -8 3 -5 6 6 6 11 1 17 -2 13 -5z m-250 -40
c-3 -3 -12 -4 -19 -1 -8 3 -5 6 6 6 11 1 17 -2 13 -5z m-880 -10 c-3 -3 -12
-4 -19 -1 -8 3 -5 6 6 6 11 1 17 -2 13 -5z m816 -1 c-7 -2 -21 -2 -30 0 -10 3
-4 5 12 5 17 0 24 -2 18 -5z m-90 -10 c-7 -2 -19 -2 -25 0 -7 3 -2 5 12 5 14
0 19 -2 13 -5z"/>
<path d="M1770 2743 c0 -3 -45 -237 -100 -519 -55 -283 -100 -516 -100 -519 0
-3 51 -5 113 -5 l114 0 53 273 c29 149 55 284 57 300 l6 27 124 0 c142 0 177
-11 188 -59 5 -24 -69 -449 -91 -524 -5 -16 3 -17 112 -15 l118 3 48 245 c27
135 50 274 51 310 3 90 -26 140 -102 178 -54 26 -64 27 -233 30 -126 3 -178 7
-178 15 0 7 12 68 25 137 14 69 25 126 25 128 0 1 -52 2 -115 2 -63 0 -115 -3
-115 -7z"/>
<path d="M796 2373 c-26 -136 -175 -903 -181 -930 -5 -23 -5 -23 110 -23 111
0 115 1 120 23 3 12 15 74 28 137 l22 115 180 6 c99 4 194 11 210 16 114 38
222 128 273 229 105 211 58 419 -112 496 -49 22 -63 23 -342 26 l-290 3 -18
-98z m485 -79 c14 -3 39 -16 54 -28 25 -20 29 -32 33 -85 10 -138 -56 -262
-156 -295 -57 -19 -266 -33 -275 -19 -6 9 65 396 78 432 5 11 27 13 123 8 64
-4 129 -9 143 -13z"/>
<path d="M1021 2144 c-13 -71 -29 -156 -36 -188 l-13 -59 98 6 c65 3 112 11
141 25 51 22 84 55 73 73 -5 8 -3 10 6 4 10 -6 12 -4 7 9 -4 9 -3 15 2 12 13
-9 22 21 28 95 11 126 -4 138 -172 146 l-110 6 -24 -129z m249 -168 c0 -2 -8
-10 -17 -17 -16 -13 -17 -12 -4 4 13 16 21 21 21 13z m-210 -59 l55 -3 -62 -2
c-54 -2 -63 0 -63 16 0 11 3 13 8 5 4 -6 32 -13 62 -16z"/>
<path d="M2606 2453 c-3 -10 -21 -103 -41 -208 -20 -104 -63 -326 -96 -493
-32 -167 -59 -310 -59 -318 0 -11 22 -14 113 -14 l113 0 23 123 c12 67 24 130
27 140 5 15 21 17 152 17 233 0 316 26 430 134 95 90 154 256 138 388 -10 76
-56 152 -114 189 -85 54 -120 59 -413 59 -246 0 -268 -1 -273 -17z m429 -153
c112 -18 148 -75 126 -196 -22 -123 -79 -199 -170 -224 -50 -14 -257 -25 -263
-14 -3 5 15 106 38 224 24 118 43 216 44 218 1 6 173 1 225 -8z"/>
<path d="M2836 2249 c-8 -39 -53 -271 -60 -311 l-7 -38 59 0 c115 0 237 37
237 73 0 8 4 19 9 24 5 5 6 2 2 -7 -4 -8 0 -6 8 5 33 39 55 172 37 218 -14 37
-47 48 -173 54 -107 6 -107 6 -112 -18z m281 -101 c-2 -13 -4 -5 -4 17 -1 22
1 32 4 23 2 -10 2 -28 0 -40z m-244 -235 c-18 -2 -48 -2 -65 0 -18 2 -4 4 32
4 36 0 50 -2 33 -4z"/>
</g>
</svg>
