<?xml version="1.0" standalone="no"?>
<!DOCTYPE svg PUBLIC "-//W3C//DTD SVG 20010904//EN"
 "http://www.w3.org/TR/2001/REC-SVG-20010904/DTD/svg10.dtd">
<svg version="1.0" xmlns="http://www.w3.org/2000/svg"
 width="1599.000000pt" height="879.000000pt" viewBox="0 0 1599.000000 879.000000"
 preserveAspectRatio="xMidYMid meet">

<g transform="translate(0.000000,879.000000) scale(0.100000,-0.100000)"
fill="#000000" stroke="none">
<path d="M10130 8762 c-32 -12 -46 -24 -48 -40 -4 -27 -5 -27 51 -2 52 23 105
32 113 18 3 -4 11 -7 17 -6 18 3 77 -30 130 -74 l48 -40 39 36 c73 65 184 108
217 83 7 -5 19 -7 27 -4 8 3 16 2 18 -3 2 -5 10 -10 18 -12 8 -2 18 -7 23 -13
4 -6 11 -4 17 5 15 23 13 26 -32 46 -91 41 -214 16 -285 -58 -15 -15 -31 -28
-36 -28 -5 0 -25 13 -43 30 -82 72 -189 96 -274 62z"/>
<path d="M12100 8700 c-14 -14 -20 -33 -20 -66 0 -35 -3 -45 -14 -41 -29 11
-44 -23 -95 -213 -199 -739 -473 -1553 -768 -2280 -459 -1131 -1073 -2311
-1716 -3297 -114 -174 -120 -188 -103 -202 11 -9 290 4 1156 53 628 35 1146
68 1151 73 5 5 75 1026 156 2268 82 1243 149 2242 151 2220 1 -22 -54 -1048
-122 -2279 -68 -1232 -122 -2245 -119 -2253 7 -17 68 -17 85 0 10 11 37 437
116 1878 57 1025 104 1868 106 1874 4 14 58 -121 111 -275 156 -455 245 -954
297 -1650 18 -241 17 -1222 -1 -1518 -9 -157 -10 -227 -3 -234 7 -7 248 18
804 86 436 53 798 96 805 96 7 0 17 8 22 18 7 14 -76 168 -404 747 -227 402
-411 732 -410 733 2 2 55 -39 117 -91 478 -398 1087 -725 1643 -881 33 -10 90
-26 126 -37 l66 -19 82 -134 c44 -73 88 -139 95 -146 22 -18 61 -8 64 16 2 13
-589 988 -1623 2680 -895 1462 -1637 2676 -1651 2697 -20 31 -24 47 -22 101 3
68 -10 96 -43 96 -11 0 -28 -9 -39 -20z m42 -81 c-2 -79 -85 -1558 -97 -1754
-4 -49 -6 -99 -6 -110 1 -18 -10 -199 -24 -430 -3 -49 -6 -97 -6 -105 -1 -20
-48 -879 -55 -995 -4 -49 -7 -111 -8 -137 0 -25 -5 -50 -10 -55 -6 -5 -6 -2
-1 7 5 8 4 12 0 7 -12 -11 -15 -38 -4 -31 6 3 7 -35 4 -98 -9 -155 -10 -165
-23 -181 -7 -7 -10 -17 -7 -21 3 -3 1 -3 -5 1 -10 9 204 3965 216 3984 3 6 11
8 17 6 8 -3 11 -31 9 -88z m-231 -2099 c-72 -1092 -156 -2381 -187 -2865 -32
-484 -58 -881 -58 -882 -1 -1 -491 -29 -1091 -62 -599 -34 -1109 -62 -1132
-63 -49 -3 -54 -17 65 166 713 1094 1378 2403 1857 3656 236 617 485 1383 636
1954 19 72 35 119 37 105 1 -13 -56 -917 -127 -2009z m736 1240 c537 -878
2435 -3982 2648 -4329 146 -239 155 -256 136 -250 -6 2 -51 67 -99 144 l-87
139 -120 33 c-440 122 -875 317 -1260 566 -226 147 -566 413 -594 466 -27 52
-353 627 -369 651 -15 22 -17 67 -15 380 2 470 -20 772 -87 1205 -50 322 -130
668 -217 945 -25 80 -49 159 -53 175 -4 17 -87 163 -185 325 -98 162 -181 306
-183 320 -3 14 -2 23 0 20 3 -3 221 -358 485 -790z m-312 396 l157 -260 53
-170 c134 -426 223 -850 274 -1306 37 -327 55 -781 43 -1068 l-7 -162 -41 72
c-22 40 -198 352 -392 693 l-351 620 49 890 c28 490 50 905 50 924 0 19 2 32
4 30 2 -2 74 -121 161 -263z m-318 -673 c-2 -16 -4 -3 -4 27 0 30 2 43 4 28 2
-16 2 -40 0 -55z m-10 -170 c-2 -21 -4 -6 -4 32 0 39 2 55 4 38 2 -18 2 -50 0
-70z m515 -1578 c240 -423 684 -1209 988 -1745 303 -536 552 -979 553 -984 2
-7 -1571 -208 -1580 -202 -1 1 3 64 7 141 17 264 32 880 26 1065 -12 365 -17
478 -32 665 -53 681 -168 1236 -349 1689 -35 87 -60 154 -56 150 4 -5 204
-355 443 -779z m-607 -1044 c3 -5 2 -12 -3 -15 -5 -3 -9 1 -9 9 0 17 3 19 12
6z m3 -69 c4 -35 -5 -25 -12 12 -3 16 -2 25 1 22 4 -4 9 -19 11 -34z m-13 -31
c3 -5 2 -12 -3 -15 -5 -3 -9 1 -9 9 0 17 3 19 12 6z m0 -80 c3 -5 2 -12 -3
-15 -5 -3 -9 1 -9 9 0 17 3 19 12 6z m2 -63 c4 -28 -6 -18 -12 12 -2 12 -1 20
2 16 4 -4 8 -16 10 -28z m-12 -57 c3 -5 2 -12 -3 -15 -5 -3 -9 1 -9 9 0 17 3
19 12 6z"/>
<path d="M11915 4971 c-3 -5 -2 -12 3 -15 5 -3 9 1 9 9 0 17 -3 19 -12 6z"/>
<path d="M11914 4875 c0 -13 3 -22 7 -19 8 4 6 30 -2 38 -3 3 -5 -5 -5 -19z"/>
<path d="M10425 8377 c-58 -20 -85 -36 -85 -52 0 -19 9 -19 56 2 81 34 175 17
257 -48 l38 -31 52 36 c102 70 194 80 284 33 29 -15 31 -15 38 0 4 11 -1 22
-12 31 -21 15 -108 42 -138 42 -41 0 -117 -29 -170 -64 -51 -33 -54 -34 -69
-17 -53 58 -177 92 -251 68z"/>
<path d="M9476 7448 c-10 -14 -17 -48 -18 -93 l-2 -70 -5 70 c-5 55 -10 71
-23 73 -9 2 -21 -5 -27 -16 -19 -36 -1761 -5054 -1761 -5073 0 -11 6 -22 13
-24 18 -7 1448 142 1458 152 5 5 80 1055 166 2333 87 1279 159 2305 161 2280
1 -25 -63 -1093 -142 -2375 -101 -1636 -141 -2334 -134 -2343 13 -16 77 -9 89
9 5 8 9 25 9 39 0 14 70 1149 156 2524 147 2366 154 2499 138 2517 -23 26 -59
24 -78 -3z m54 -20 c0 -18 -50 -816 -111 -1773 -61 -957 -110 -1749 -110
-1760 1 -11 -4 -83 -9 -160 -6 -77 -12 -175 -15 -218 -2 -42 -6 -113 -9 -157
-3 -44 -7 -116 -10 -160 -3 -44 -8 -117 -11 -163 -7 -112 -15 -238 -19 -319
-2 -38 -9 -75 -17 -85 -8 -9 -9 -14 -3 -10 8 5 10 -14 7 -66 -3 -39 -5 -89 -5
-110 0 -20 -4 -37 -10 -37 -5 0 -7 4 -3 9 3 5 0 13 -6 17 -7 4 -9 3 -5 -4 3
-6 1 -14 -5 -17 -8 -5 -9 13 -5 66 4 41 74 1173 156 2517 83 1344 152 2448
155 2453 14 22 35 8 35 -23z m-278 -2468 c-91 -1345 -166 -2446 -166 -2447 -2
-4 -1383 -144 -1401 -141 -21 3 30 154 853 2520 482 1385 876 2517 878 2515 1
-1 -72 -1102 -164 -2447z m195 2203 c-2 -21 -4 -4 -4 37 0 41 2 58 4 38 2 -21
2 -55 0 -75z"/>
<path d="M15250 2940 c-388 -48 -1518 -186 -2512 -306 -1030 -125 -1804 -223
-1801 -228 4 -5 1 -6 -6 -1 -18 10 -335 -26 -319 -37 8 -6 5 -7 -10 -3 -32 9
-335 -27 -320 -38 8 -5 5 -6 -9 -2 -27 7 -164 -5 -159 -14 2 -3 -19 -5 -47 -3
-34 2 -47 0 -39 -6 9 -6 -6 -8 -40 -5 -41 3 -50 2 -38 -7 12 -9 11 -10 -7 -5
-29 8 -164 -5 -158 -15 3 -4 -17 -5 -43 -3 -37 4 -44 2 -32 -7 12 -9 9 -10
-14 -5 -16 3 -78 1 -137 -6 l-107 -12 15 -24 c9 -13 13 -26 10 -29 -3 -3 -8 4
-12 15 -3 12 -11 21 -16 21 -6 0 -8 -4 -5 -9 3 -4 -6 -18 -19 -31 -13 -13 -22
-27 -18 -33 3 -6 1 -7 -6 -3 -6 4 -9 12 -6 17 4 5 2 9 -4 9 -13 0 -22 -15 -14
-24 12 -12 12 -35 0 -33 -7 1 -11 -5 -9 -14 1 -9 -5 -22 -13 -29 -13 -11 -16
-11 -13 1 2 8 -2 13 -8 12 -18 -3 -10 84 11 107 10 11 15 23 12 26 -3 4 -58 1
-121 -6 -90 -10 -113 -16 -105 -26 8 -10 28 -12 49 -4 3 1 8 2 13 1 4 0 7 3 7
9 0 5 7 10 15 10 8 0 15 -4 15 -9 0 -8 21 -8 40 -1 3 1 9 2 13 1 5 -1 6 3 2 9
-9 14 8 13 23 -2 9 -9 12 -9 12 0 0 7 4 12 10 12 5 0 1 -15 -9 -32 -10 -18
-17 -50 -16 -70 1 -21 -1 -36 -3 -33 -2 2 -14 -8 -27 -23 -17 -20 -21 -30 -13
-40 8 -10 7 -17 -4 -28 -13 -13 -16 -13 -29 2 -8 9 -15 25 -15 36 -3 35 -4 39
-12 34 -14 -9 -8 -53 11 -74 14 -16 15 -19 2 -19 -8 0 -13 3 -10 5 3 3 -1 12
-9 21 -8 9 -15 19 -15 24 -1 4 -3 7 -6 7 -3 0 -8 0 -11 0 -4 0 1 -10 9 -23 11
-17 12 -24 3 -24 -7 0 -13 6 -14 14 -1 7 -3 20 -4 28 -1 8 -5 15 -10 15 -5 0
-5 8 -1 18 15 33 2 102 -20 102 -8 0 -7 4 2 9 11 7 3 15 -30 32 -40 20 -61 23
-213 27 -225 5 -249 1 -300 -52 -23 -23 -59 -65 -80 -94 -21 -29 -41 -50 -46
-47 -4 3 -7 -3 -6 -13 0 -9 -5 -16 -12 -14 -6 1 -11 -2 -10 -7 4 -14 -72 -112
-82 -106 -5 3 -12 0 -16 -6 -4 -8 -3 -9 4 -5 7 4 12 2 12 -4 0 -6 -7 -13 -15
-16 -8 -4 -15 -11 -15 -18 0 -6 -13 -25 -29 -41 -15 -17 -33 -41 -40 -53 -7
-12 -16 -20 -21 -17 -5 3 -12 0 -16 -6 -4 -8 -3 -9 4 -5 7 4 12 2 12 -3 0 -6
-4 -11 -9 -11 -5 0 -12 -8 -16 -17 -3 -10 -19 -33 -35 -52 -26 -30 -31 -33
-46 -20 -16 13 -16 12 -3 -9 12 -21 12 -25 -3 -36 -10 -7 -18 -18 -18 -24 0
-6 -9 -16 -20 -22 -11 -6 -20 -16 -20 -22 0 -6 -10 -19 -22 -29 -11 -11 -18
-19 -13 -19 4 0 -7 -17 -24 -37 -18 -21 -37 -44 -43 -52 -10 -12 -21 -4 -65
45 -29 32 -50 65 -48 72 3 7 0 10 -5 7 -16 -10 -12 15 13 85 36 97 40 134 22
169 -24 47 -52 61 -122 61 l-62 0 -10 53 c-5 28 -12 76 -14 105 -4 47 -2 52
16 52 11 0 18 3 14 6 -3 4 -18 4 -32 0 -24 -6 -25 -10 -25 -74 0 -37 4 -83 9
-104 l9 -36 -109 -4 c-90 -2 -112 -6 -136 -24 -24 -18 -46 -74 -173 -447
l-145 -427 -107 0 c-96 0 -108 2 -108 18 0 9 57 185 127 390 112 333 125 377
117 409 -5 21 -21 45 -37 57 -26 19 -44 21 -196 24 -189 4 -229 -5 -254 -55
-16 -31 -244 -702 -271 -796 -26 -91 -32 -212 -13 -278 22 -75 83 -143 160
-180 l59 -28 -161 -3 c-156 -3 -161 -4 -186 -28 -26 -27 -115 -261 -115 -305
0 -37 19 -70 50 -88 25 -15 70 -17 384 -17 410 0 459 6 596 72 107 53 207 149
275 267 l47 81 194 0 c149 0 201 3 222 14 16 8 78 87 147 185 l120 171 65 -3
c36 -2 90 -12 120 -21 59 -18 196 -23 292 -11 l56 7 4 -88 c2 -49 1 -93 -4
-99 -6 -6 -91 -10 -218 -10 -116 0 -210 -3 -210 -6 0 -13 193 -21 314 -14
l123 7 7 -40 c4 -28 15 -48 37 -66 l31 -26 217 0 c184 0 220 2 240 16 36 26
49 69 43 143 l-4 66 29 -40 c64 -86 153 -143 265 -170 50 -12 142 -15 431 -15
l369 0 27 27 c21 22 63 136 205 556 151 444 182 527 197 527 11 0 19 -6 19
-13 0 -8 -71 -223 -158 -478 -87 -255 -162 -479 -165 -497 -7 -36 3 -63 36
-100 20 -21 26 -22 214 -22 l193 0 29 27 c25 24 50 89 162 418 72 215 138 405
145 423 13 31 15 32 73 32 46 0 61 -3 61 -14 0 -8 -56 -180 -125 -382 -75
-221 -125 -384 -125 -407 0 -29 7 -46 29 -68 l29 -29 196 0 c244 0 228 -10
295 185 26 77 92 270 146 429 l98 288 63 -4 c35 -2 66 -7 70 -11 4 -3 -33
-124 -82 -267 l-89 -260 -43 0 c-26 0 -41 -4 -37 -10 3 -5 21 -10 40 -10 l34
0 -34 -101 c-38 -113 -44 -154 -27 -186 27 -49 44 -53 243 -53 243 0 227 -12
304 219 56 169 62 180 107 181 4 0 -11 -50 -33 -111 -67 -189 -68 -209 -16
-267 20 -21 26 -22 219 -22 l198 0 30 28 c26 23 46 74 139 346 100 294 126
354 147 333 3 -3 -38 -132 -90 -286 -52 -155 -96 -296 -97 -314 -3 -38 12 -70
43 -91 18 -13 57 -16 210 -16 l188 0 29 28 c24 22 48 82 139 352 l110 325 27
-3 c18 -3 25 0 21 7 -4 6 -14 11 -22 11 -20 0 -18 14 14 100 l28 75 101 0 c56
0 105 -3 109 -7 3 -4 -50 -175 -120 -380 -76 -226 -126 -388 -126 -411 0 -29
7 -46 29 -68 l29 -29 191 0 191 0 29 28 c25 23 50 87 155 398 145 427 166 502
166 594 0 130 -48 218 -147 273 -90 48 -164 59 -451 66 l-263 6 83 100 c359
436 836 732 1410 874 147 37 238 53 458 80 181 23 266 45 336 86 38 22 45 31
42 53 -2 15 -10 28 -18 28 -8 1 -332 -37 -720 -86z m-5363 -666 c-3 -3 -12 -4
-19 -1 -8 3 -5 6 6 6 11 1 17 -2 13 -5z m-330 -40 c-3 -3 -12 -4 -19 -1 -8 3
-5 6 6 6 11 1 17 -2 13 -5z m-47 -20 c0 -8 -19 -13 -24 -6 -3 5 1 9 9 9 8 0
15 -2 15 -3z m-53 -39 c0 -8 -4 -12 -8 -9 -4 2 -12 -4 -18 -13 -6 -10 -11 -14
-11 -9 0 8 29 46 35 46 1 0 2 -7 2 -15z m-438 -27 c12 -30 144 -1575 136
-1588 -9 -15 -388 -13 -403 2 -7 7 -12 42 -12 88 0 41 -3 119 -7 173 l-6 97
-326 0 -326 -1 -120 -170 c-66 -94 -127 -177 -136 -185 -13 -12 -50 -14 -200
-12 -177 3 -184 4 -183 23 0 16 1118 1497 1187 1573 20 21 26 22 204 22 181 0
184 0 192 -22z m1818 7 c4 -13 -212 -665 -473 -1420 l-62 -180 -368 0 c-356 0
-371 1 -428 23 -82 30 -130 64 -170 120 -70 95 -84 231 -42 394 46 175 113
295 235 422 179 185 319 236 655 236 l171 0 64 188 c35 103 68 197 72 210 8
22 11 22 174 22 140 0 167 -2 172 -15z m2509 2 c6 -17 -94 -309 -109 -319 -7
-4 -83 -8 -169 -8 -128 0 -159 3 -172 15 -14 14 -10 30 34 158 28 78 52 148
55 155 7 18 354 17 361 -1z m-4018 -99 c-3 -7 -11 -13 -19 -13 -8 -1 -13 -6
-12 -11 1 -6 -5 -11 -13 -11 -12 0 -11 4 2 18 9 10 21 16 25 13 5 -3 9 0 9 5
0 6 3 11 6 11 3 0 4 -6 2 -12z m-126 -112 c7 4 8 2 4 -5 -9 -13 -26 -5 -25 12
0 9 2 8 6 -1 2 -6 10 -9 15 -6z m-27 -27 c-4 -5 -12 -9 -18 -8 -9 0 -8 2 1 6
6 2 9 10 6 15 -4 7 -2 8 5 4 6 -4 9 -12 6 -17z m-2155 -192 c0 -12 -56 -188
-125 -391 -134 -394 -145 -444 -102 -468 14 -8 78 -14 177 -16 l155 -4 149
439 c82 241 153 444 159 451 12 15 332 18 342 3 5 -8 -261 -805 -372 -1116
-100 -280 -220 -409 -440 -471 -47 -14 -124 -18 -420 -21 -340 -5 -363 -4
-370 13 -4 10 10 68 33 138 l40 121 315 5 c325 6 349 9 399 52 21 17 60 69 60
78 0 4 -84 10 -187 13 -208 5 -281 19 -348 65 -75 52 -102 134 -85 255 10 68
261 837 283 865 7 9 54 12 173 12 l164 0 0 -23z m5260 8 c88 -18 138 -44 178
-89 82 -94 72 -172 -91 -654 -69 -202 -132 -384 -140 -404 l-16 -38 -166 0
c-133 0 -167 3 -171 14 -3 8 48 173 114 368 132 389 142 420 142 461 0 44 -47
58 -177 55 l-107 -3 -151 -445 -152 -445 -172 -3 c-135 -2 -173 0 -177 11 -2
7 61 206 141 442 80 235 145 432 145 436 0 5 -67 9 -149 9 l-149 0 -21 -57
c-11 -32 -79 -230 -150 -441 -72 -210 -133 -387 -136 -392 -4 -6 -74 -10 -171
-10 -139 0 -166 2 -171 15 -4 13 334 1031 383 1153 l13 32 640 0 c528 0 652
-3 711 -15z m920 -7 c0 -25 -378 -1145 -393 -1166 -7 -9 -55 -12 -179 -12
-142 0 -170 2 -174 15 -5 13 362 1118 388 1168 8 15 27 17 183 17 175 0 175 0
175 -22z m990 7 c81 -17 123 -36 163 -74 51 -46 61 -78 60 -173 -1 -84 -5
-101 -138 -495 -76 -224 -142 -416 -147 -425 -8 -16 -27 -18 -174 -18 -131 0
-166 3 -170 14 -3 8 45 162 107 342 139 408 149 441 149 482 0 53 -38 63 -216
60 l-146 -3 -152 -445 -151 -445 -168 -3 c-138 -2 -168 0 -173 12 -4 12 374
1148 392 1177 3 5 160 9 349 9 267 0 360 -3 415 -15z m-3341 -57 c0 -7 -8 -35
-18 -63 -13 -38 -23 -51 -41 -53 -16 -3 -21 0 -18 10 3 7 13 37 22 66 13 39
23 52 37 52 10 0 19 -6 18 -12z m-1365 -150 c-28 -29 -57 -63 -65 -75 -14 -21
-48 -33 -212 -80 -16 -5 -18 1 -15 53 l3 58 60 18 c49 15 259 74 274 77 2 1
-18 -23 -45 -51z m-1615 -166 l53 -63 -143 -189 c-79 -104 -145 -188 -146
-186 -2 2 36 119 83 260 48 142 90 254 93 249 4 -4 31 -36 60 -71z m4797 72
c21 -6 18 -15 -73 -282 -51 -153 -101 -283 -110 -289 -43 -33 -38 -5 39 230
44 133 82 266 85 295 6 54 12 59 59 46z m-3316 -84 c-40 -68 -82 -170 -105
-255 l-20 -70 -6 65 c-4 36 -10 109 -14 162 l-7 97 78 25 c44 14 85 25 91 26
7 0 0 -21 -17 -50z m3871 -62 c-29 -86 -42 -113 -59 -119 -12 -5 -22 -7 -22
-6 0 2 16 50 35 106 30 91 53 130 77 131 4 0 -10 -50 -31 -112z m-4581 -489
c-49 -13 -260 -14 -290 -1 -19 8 19 11 150 10 127 0 165 -3 140 -9z"/>
<path d="M8510 1520 c-96 -134 -179 -249 -183 -256 -7 -12 26 -14 189 -14
l196 0 -7 148 c-4 81 -10 196 -14 256 l-6 109 -175 -243z m127 -92 c-3 -8 -6
-5 -6 6 -1 11 2 17 5 13 3 -3 4 -12 1 -19z m-11 -20 c4 -7 3 -10 -1 -5 -5 4
-22 -5 -39 -20 l-31 -28 29 33 c34 37 33 36 42 20z"/>
<path d="M9963 1440 c-61 -14 -143 -61 -179 -103 -76 -87 -152 -294 -141 -382
11 -82 70 -105 268 -105 121 0 138 2 144 18 10 26 195 573 195 578 0 7 -254 2
-287 -6z m144 -279 l-62 -180 -45 7 c-25 4 -91 7 -147 7 -57 0 -103 0 -103 1
0 11 48 140 62 169 61 119 153 173 300 174 l57 1 -62 -179z m-79 -195 c7 -4 6
-19 -1 -42 l-11 -36 -111 4 c-60 2 -120 10 -132 17 -28 14 -31 57 -5 65 22 7
248 0 260 -8z"/>
<path d="M9384 2214 c20 -19 20 -21 1 -21 -8 0 -11 5 -8 11 3 6 -5 1 -17 -11
-28 -27 -35 -87 -12 -105 13 -11 15 -10 9 4 -3 9 1 22 9 29 10 8 11 15 4 24
-12 15 10 37 31 33 8 -2 13 3 12 10 -2 6 2 11 8 10 6 -2 13 5 14 15 3 13 -4
17 -32 17 -31 0 -33 -1 -19 -16z"/>
<path d="M2104 2213 c-53 -10 -70 -48 -211 -463 l-137 -403 -17 84 c-30 151
-100 249 -223 309 -107 53 -191 61 -568 58 -315 -3 -334 -4 -360 -23 -15 -11
-30 -27 -33 -35 -28 -66 -545 -1602 -545 -1618 0 -34 20 -67 50 -85 23 -14 58
-17 209 -17 l181 0 32 29 c26 23 42 58 92 207 l61 179 190 6 c194 6 240 13
341 50 122 46 260 148 346 254 28 36 53 63 55 62 1 -2 -15 -57 -37 -122 -42
-126 -47 -153 -29 -188 27 -54 40 -57 241 -57 l188 0 30 28 c26 23 50 86 172
447 l143 420 102 0 c56 0 105 -3 109 -8 4 -4 -48 -170 -116 -370 -68 -199
-125 -383 -128 -410 -4 -43 -1 -50 28 -77 l32 -30 185 0 c167 0 189 2 218 20
30 18 39 41 163 407 160 474 163 485 165 581 2 177 -84 284 -264 327 -35 8
-125 18 -200 21 l-135 7 48 139 c26 77 48 152 48 166 0 45 -34 89 -77 101 -36
10 -303 13 -349 4z m313 -54 c8 -8 -7 -64 -53 -202 -35 -105 -64 -195 -64
-199 0 -4 74 -8 164 -8 241 0 346 -26 414 -104 17 -20 36 -55 43 -78 13 -51 6
-150 -17 -228 -32 -110 -257 -765 -266 -778 -15 -17 -337 -17 -343 1 -3 6 54
185 125 396 72 211 130 398 130 415 0 42 -10 55 -51 66 -29 9 -309 15 -309 7
0 -9 -292 -862 -300 -878 -10 -18 -22 -19 -169 -19 -115 0 -161 3 -169 12 -7
9 63 229 248 774 142 418 265 777 274 797 l15 37 158 0 c102 0 163 -4 170 -11z
m-1058 -424 c232 -55 324 -235 260 -508 -43 -182 -110 -306 -238 -441 -106
-110 -207 -172 -339 -208 -62 -16 -119 -21 -284 -25 l-206 -5 -67 -197 c-37
-108 -72 -202 -77 -209 -8 -9 -51 -12 -172 -10 -152 3 -161 4 -164 23 -2 17
515 1555 533 1584 11 18 675 14 754 -4z"/>
<path d="M2102 2063 c-123 -356 -492 -1447 -492 -1454 0 -5 54 -9 119 -9 l119
0 26 72 c14 40 82 238 150 440 69 203 128 372 131 378 8 13 309 13 357 0 62
-18 81 -40 85 -101 4 -54 -26 -152 -216 -702 l-30 -88 126 3 127 3 117 345
c138 406 148 439 155 522 5 53 2 70 -18 108 -48 93 -111 111 -403 119 -200 6
-210 7 -213 26 -1 11 25 101 58 200 33 99 60 183 60 187 0 4 -54 8 -119 8
l-119 0 -20 -57z"/>
<path d="M640 1697 c0 -2 -115 -341 -255 -753 -140 -411 -255 -752 -255 -756
0 -5 55 -7 122 -6 l121 3 71 205 71 205 215 6 c285 8 373 29 505 124 165 117
286 304 335 518 52 224 -13 378 -183 434 -44 14 -105 17 -399 21 -192 2 -348
2 -348 -1z m557 -212 c58 -17 107 -65 118 -115 15 -69 -18 -206 -78 -328 -61
-123 -157 -203 -278 -232 -24 -5 -112 -13 -194 -17 -128 -5 -152 -4 -163 9
-10 13 7 74 102 353 64 186 121 342 128 347 21 15 306 1 365 -17z"/>
<path d="M855 1438 c-27 -72 -195 -572 -195 -580 0 -7 49 -9 148 -6 142 4 149
5 214 36 101 49 166 136 216 289 46 140 37 213 -31 250 -43 24 -344 33 -352
11z m318 -109 c34 -9 37 -13 37 -48 0 -81 -64 -237 -123 -299 -48 -50 -100
-72 -198 -85 -49 -6 -90 -9 -93 -6 -3 2 29 104 71 227 l76 222 96 0 c53 0 113
-5 134 -11z"/>
<path d="M4784 2209 c-17 -5 -38 -17 -47 -27 -13 -14 -174 -471 -339 -964 -2
-5 -3 52 -3 125 0 127 -1 134 -31 197 -57 120 -138 189 -275 232 -72 22 -84
23 -451 23 l-378 0 -25 -25 c-19 -20 -87 -206 -295 -819 -174 -512 -270 -808
-270 -833 0 -32 6 -46 32 -70 l31 -29 193 3 c184 3 193 4 217 26 16 15 43 80
87 207 l62 185 162 0 c300 0 452 54 633 223 76 72 136 147 188 237 20 36 34
56 30 45 -143 -421 -145 -427 -96 -476 l29 -29 206 0 206 0 30 27 c27 24 42
64 116 303 48 151 89 278 93 282 3 4 6 -119 6 -273 l0 -281 33 -29 32 -29 205
0 c112 0 215 4 229 10 18 6 77 87 196 265 93 140 172 255 175 255 2 0 -12 -44
-32 -98 -126 -344 -128 -358 -75 -408 l27 -25 207 3 c193 3 209 4 228 23 22
23 558 1585 562 1638 2 36 -10 63 -42 92 -21 19 -37 20 -295 20 -262 0 -275
-1 -302 -21 -15 -12 -165 -225 -333 -474 l-305 -453 -5 445 c-5 488 -3 468
-67 495 -38 15 -496 17 -549 2z m502 -49 c7 -7 9 -192 6 -573 -3 -361 -1 -558
5 -552 6 6 180 263 388 573 l377 562 254 0 c211 0 256 -2 260 -14 6 -17 -525
-1587 -540 -1598 -6 -5 -87 -7 -181 -5 -147 2 -170 4 -173 18 -2 9 78 241 177
515 99 274 179 499 177 502 -2 2 -158 -227 -347 -510 -188 -282 -347 -516
-353 -520 -6 -5 -94 -7 -196 -5 l-185 2 -5 537 -5 538 -164 -528 c-91 -290
-169 -533 -174 -540 -14 -18 -366 -17 -373 1 -5 15 520 1573 538 1594 13 17
498 19 514 3z m-1231 -434 c165 -60 238 -166 238 -346 -1 -294 -205 -625 -466
-754 -112 -55 -185 -68 -416 -75 l-204 -6 -69 -200 c-38 -110 -74 -203 -81
-207 -14 -9 -298 -11 -321 -2 -9 3 -16 10 -16 15 0 8 517 1537 535 1582 7 17
28 18 379 15 328 -3 377 -6 421 -22z"/>
<path d="M3289 1673 c-12 -31 -317 -928 -434 -1275 l-73 -218 122 0 123 0 68
198 c37 108 71 202 76 208 6 8 84 13 227 17 240 6 290 14 407 72 243 119 436
431 437 705 1 147 -60 240 -188 291 -57 23 -69 24 -406 27 l-348 3 -11 -28z
m479 -173 c150 -17 202 -66 202 -190 0 -47 -9 -91 -33 -160 -58 -168 -147
-275 -266 -321 -59 -22 -191 -39 -308 -39 -92 0 -113 5 -113 29 0 34 221 666
237 679 20 15 162 16 281 2z"/>
<path d="M3417 1168 c-52 -156 -99 -291 -103 -302 -7 -17 0 -18 142 -14 178 6
222 19 298 89 116 106 200 354 152 448 -25 47 -56 55 -232 59 l-161 4 -96
-284z m413 159 c34 -12 35 -14 33 -59 -3 -59 -46 -178 -88 -244 -55 -85 -118
-118 -250 -130 -51 -5 -75 -3 -75 4 0 8 109 332 145 430 6 16 187 15 235 -1z"/>
<path d="M9206 2182 c-4 -4 -12 -8 -17 -8 -5 -1 -11 -3 -14 -4 -4 -2 -12 -4
-30 -9 -3 0 0 -13 8 -28 7 -16 12 -44 11 -64 -2 -26 1 -36 12 -36 7 0 12 3 9
5 -3 3 2 13 10 22 14 15 14 19 -1 31 -15 12 -16 12 -10 -8 4 -12 3 -24 -2 -27
-5 -3 -8 9 -7 27 2 18 -1 37 -5 42 -5 6 -1 19 7 30 12 16 14 16 10 3 -3 -10
-2 -20 2 -23 5 -2 12 7 16 22 6 25 7 26 17 9 8 -15 12 -16 20 -5 8 11 9 10 5
-3 -10 -28 6 -30 18 -1 10 23 12 25 18 10 4 -11 3 -16 -3 -12 -6 3 -10 -1 -10
-10 0 -9 5 -13 11 -9 8 5 8 1 0 -13 -6 -11 -7 -24 -3 -28 4 -5 1 -4 -7 0 -11
6 -13 4 -8 -7 3 -10 -3 -24 -14 -34 -11 -10 -20 -14 -19 -9 5 21 -1 36 -10 30
-6 -4 -7 -13 -1 -23 4 -9 7 -25 6 -34 -4 -22 20 -44 30 -28 4 7 3 16 -3 22 -8
8 -3 21 16 44 15 19 27 47 28 66 1 18 5 41 9 51 6 14 3 16 -16 13 -13 -3 -25
-5 -26 -7 -8 -5 -29 -4 -39 3 -6 4 -14 4 -18 0z"/>
<path d="M9207 2139 c-5 -20 -8 -21 -24 -8 -12 10 -10 4 6 -19 12 -18 27 -30
32 -26 5 3 12 -2 15 -10 3 -9 10 -14 15 -11 4 3 6 12 3 19 -3 8 -1 17 5 21 6
3 11 12 11 18 0 7 -10 1 -21 -13 -16 -20 -18 -21 -10 -4 8 17 6 25 -8 38 -17
16 -19 15 -24 -5z m15 -35 c-8 -15 -9 -15 -15 0 -4 10 -3 15 3 11 6 -3 10 2
11 12 0 10 3 13 5 6 3 -7 1 -20 -4 -29z"/>
<path d="M8460 2116 c0 -9 50 -12 62 -5 8 6 -1 9 -24 9 -21 0 -38 -2 -38 -4z"/>
<path d="M8398 2103 c12 -2 30 -2 40 0 9 3 -1 5 -23 4 -22 0 -30 -2 -17 -4z"/>
<path d="M8308 2093 c12 -2 32 -2 45 0 12 2 2 4 -23 4 -25 0 -35 -2 -22 -4z"/>
<path d="M8228 2083 c12 -2 30 -2 40 0 9 3 -1 5 -23 4 -22 0 -30 -2 -17 -4z"/>
<path d="M8148 2073 c12 -2 30 -2 40 0 9 3 -1 5 -23 4 -22 0 -30 -2 -17 -4z"/>
<path d="M8068 2063 c12 -2 30 -2 40 0 9 3 -1 5 -23 4 -22 0 -30 -2 -17 -4z"/>
<path d="M7978 2053 c12 -2 30 -2 40 0 9 3 -1 5 -23 4 -22 0 -30 -2 -17 -4z"/>
<path d="M7898 2043 c12 -2 30 -2 40 0 9 3 -1 5 -23 4 -22 0 -30 -2 -17 -4z"/>
<path d="M7818 2033 c12 -2 30 -2 40 0 9 3 -1 5 -23 4 -22 0 -30 -2 -17 -4z"/>
<path d="M7738 2023 c12 -2 30 -2 40 0 9 3 -1 5 -23 4 -22 0 -30 -2 -17 -4z"/>
<path d="M8183 1703 c8 -13 -17 -35 -29 -25 -4 4 -3 0 4 -9 6 -9 10 -19 7 -22
-3 -4 -2 -5 1 -3 3 2 4 6 2 9 -1 3 5 14 15 25 14 15 15 22 6 28 -7 4 -10 3 -6
-3z"/>
<path d="M8120 1635 c0 -2 6 -8 13 -14 10 -8 14 -7 14 2 0 8 -6 14 -14 14 -7
0 -13 -1 -13 -2z"/>
<path d="M8074 1596 c4 -27 21 -39 35 -22 8 10 9 16 1 21 -6 4 -9 2 -8 -3 2
-6 -1 -10 -7 -11 -5 -1 -10 3 -10 8 0 5 -3 12 -7 16 -3 4 -5 0 -4 -9z"/>
<path d="M8049 1579 c0 -2 -2 -12 -4 -21 -5 -25 19 -42 34 -25 8 11 6 18 -9
32 -11 10 -20 16 -21 14z m27 -36 c-10 -11 -19 -7 -22 10 -2 15 0 16 12 6 8
-6 12 -14 10 -16z"/>
<path d="M8011 1526 c-8 -10 -9 -16 -1 -21 6 -3 7 -11 4 -17 -4 -6 -10 -5 -15
3 -6 9 -7 2 -4 -20 5 -29 4 -32 -9 -22 -8 7 -13 20 -11 30 2 10 -3 18 -11 18
-10 0 -11 -4 -3 -14 6 -7 8 -13 4 -13 -5 0 -1 -8 9 -19 15 -17 15 -19 -1 -32
-15 -12 -16 -12 -10 3 3 10 -1 22 -11 30 -13 11 -14 11 -7 -2 5 -8 9 -25 10
-37 0 -12 3 -24 8 -27 4 -3 5 -3 2 1 -3 4 6 19 20 33 14 15 25 33 23 41 -2 8
3 13 10 12 6 -2 11 3 10 10 -2 6 2 11 9 10 13 -3 11 23 -4 38 -7 7 -14 5 -22
-5z m23 -17 c-3 -5 -10 -7 -15 -3 -5 3 -7 10 -3 15 3 5 10 7 15 3 5 -3 7 -10
3 -15z"/>
<path d="M7912 1436 c-9 -21 -7 -27 16 -47 15 -13 22 -18 15 -10 -6 7 -10 19
-9 25 2 6 1 8 -1 3 -8 -13 -22 3 -17 18 4 8 10 12 15 9 5 -3 6 2 3 10 -8 21
-9 20 -22 -8z"/>
</g>
</svg>
