<?xml version="1.0" standalone="no"?>
<!DOCTYPE svg PUBLIC "-//W3C//DTD SVG 20010904//EN"
 "http://www.w3.org/TR/2001/REC-SVG-20010904/DTD/svg10.dtd">
<svg version="1.0" xmlns="http://www.w3.org/2000/svg"
 width="208.000000pt" height="208.000000pt" viewBox="0 0 208.000000 208.000000"
 preserveAspectRatio="xMidYMid meet">

<g transform="translate(0.000000,208.000000) scale(0.100000,-0.100000)"
fill="#000000" stroke="none">
<path d="M780 1895 c0 -10 -11 -15 -35 -15 -24 0 -35 -5 -35 -15 0 -8 -7 -15
-15 -15 -8 0 -15 -7 -15 -15 0 -8 -7 -15 -15 -15 -10 0 -15 -11 -15 -35 0 -24
-5 -35 -15 -35 -8 0 -15 -4 -15 -9 0 -11 35 -21 73 -21 17 0 27 -5 27 -15 0
-8 -9 -15 -20 -15 -11 0 -20 -7 -20 -15 0 -11 -12 -15 -45 -15 -32 0 -45 -4
-45 -14 0 -7 -9 -16 -20 -19 -17 -4 -20 -14 -20 -56 0 -39 -4 -51 -15 -51 -8
0 -15 -7 -15 -16 0 -13 -6 -15 -27 -9 -16 3 -32 13 -36 21 -4 8 -21 14 -37 14
-28 0 -30 -3 -30 -35 l0 -35 80 0 80 0 0 -30 c0 -16 6 -33 14 -37 7 -4 17 -27
21 -50 l7 -43 -86 0 c-70 0 -86 -3 -86 -15 0 -10 -10 -15 -30 -15 -24 0 -30
-4 -30 -21 0 -17 -5 -20 -32 -17 l-33 3 -3 68 c-2 55 0 67 13 67 8 0 15 7 15
16 0 24 -71 13 -99 -15 -21 -21 -29 -71 -11 -71 6 0 10 -7 10 -15 0 -8 -4 -15
-10 -15 -5 0 -10 -16 -10 -35 0 -23 -5 -35 -14 -35 -29 0 -29 -83 0 -94 8 -3
14 -12 14 -21 0 -8 5 -15 10 -15 6 0 10 -13 10 -30 0 -16 -5 -30 -10 -30 -6 0
-14 -8 -17 -17 -4 -10 -13 -24 -21 -32 -11 -11 -12 -30 -7 -80 4 -36 11 -69
16 -72 6 -3 12 -23 16 -45 3 -21 12 -43 20 -47 7 -4 13 -15 13 -22 0 -8 7 -15
15 -15 8 0 15 -7 15 -15 0 -11 12 -15 44 -15 37 0 45 -4 50 -23 11 -41 7 -77
-9 -77 -10 0 -15 -11 -15 -35 0 -19 4 -35 10 -35 5 0 12 -11 16 -25 3 -14 12
-25 20 -25 8 0 14 -9 14 -20 0 -16 7 -20 35 -20 24 0 35 -5 35 -15 0 -8 7 -15
15 -15 8 0 15 -6 15 -14 0 -17 49 -31 63 -17 12 12 1 31 -19 31 -8 0 -14 7
-14 15 0 10 -10 15 -30 15 -18 0 -30 5 -30 13 0 7 -9 20 -20 30 -28 24 -28 87
0 87 11 0 20 -6 20 -14 0 -8 13 -17 30 -21 16 -4 30 -10 30 -15 0 -5 14 -11
30 -15 17 -4 30 -13 30 -21 0 -9 11 -14 35 -14 24 0 35 -5 35 -15 0 -11 12
-15 50 -15 38 0 50 -4 50 -15 0 -10 -10 -15 -30 -15 -18 0 -33 -6 -36 -15 -4
-8 -12 -15 -20 -15 -9 0 -14 -12 -14 -35 0 -24 5 -35 15 -35 8 0 15 -6 15 -13
0 -23 35 -44 85 -50 27 -4 52 -12 55 -17 13 -20 90 -16 90 5 0 11 12 15 50 15
38 0 50 -4 50 -15 0 -10 10 -15 30 -15 20 0 30 5 30 15 0 10 10 15 28 15 42 0
72 -11 72 -26 0 -20 89 -19 96 1 4 8 12 15 20 15 11 0 14 21 14 100 l0 100 65
0 c51 0 65 -3 65 -15 0 -11 12 -15 45 -15 33 0 45 4 45 15 0 8 9 15 20 15 11
0 20 6 20 14 0 7 13 16 30 19 21 5 31 14 36 32 9 35 -4 92 -21 99 -8 3 -15 12
-15 21 0 8 -7 15 -15 15 -8 0 -15 7 -15 15 0 11 12 15 50 15 38 0 50 4 50 15
0 10 10 15 30 15 27 0 30 3 30 30 0 17 7 33 17 38 14 9 17 30 19 153 1 79 2
150 3 157 1 17 21 15 21 -3 0 -8 9 -15 20 -15 13 0 20 -7 20 -20 0 -11 5 -20
11 -20 7 0 18 -8 25 -17 8 -12 16 -15 23 -8 13 14 2 65 -15 65 -9 0 -14 11
-14 30 0 20 5 30 15 30 8 0 15 7 15 15 0 7 8 18 17 24 21 12 23 78 3 91 -8 5
-15 22 -16 37 -3 116 -4 123 -19 123 -8 0 -15 9 -15 20 0 11 -7 20 -15 20 -8
0 -15 7 -15 15 0 11 -11 15 -36 15 -33 0 -36 -2 -30 -23 10 -41 -3 -67 -35
-67 -16 0 -29 5 -29 10 0 6 7 10 15 10 8 0 15 6 15 13 0 6 3 22 6 35 6 22 5
22 -80 22 l-86 0 0 35 c0 24 5 35 15 35 8 0 15 7 15 15 0 8 -7 15 -15 15 -8 0
-15 7 -15 15 0 8 -7 15 -15 15 -10 0 -15 11 -15 35 0 24 5 35 15 35 8 0 15 -6
15 -14 0 -8 14 -17 30 -21 17 -4 30 -13 30 -21 0 -8 6 -14 14 -14 8 0 17 -13
21 -29 4 -18 14 -31 28 -35 35 -9 37 -8 37 29 0 24 5 35 15 35 8 0 15 7 15 15
0 8 -7 15 -15 15 -8 0 -15 7 -15 15 0 8 -7 15 -15 15 -8 0 -15 9 -15 20 0 11
-7 20 -15 20 -8 0 -15 7 -15 15 0 11 -12 15 -50 15 -38 0 -50 4 -50 15 0 8 -7
15 -15 15 -9 0 -18 7 -21 15 -7 18 -120 22 -126 4 -5 -14 -96 -24 -132 -15
-17 4 -26 15 -31 36 -4 16 -13 30 -21 30 -8 0 -14 7 -14 15 0 8 -7 15 -15 15
-8 0 -15 7 -15 15 0 8 -9 15 -19 15 -11 0 -26 6 -33 13 -7 7 -21 16 -30 20
-10 3 -18 11 -18 17 0 5 -13 10 -30 10 -16 0 -30 -4 -30 -10 0 -5 -16 -12 -35
-16 -19 -3 -35 -10 -35 -15 0 -5 -7 -9 -15 -9 -8 0 -15 5 -15 10 0 6 -7 10
-15 10 -8 0 -15 7 -15 15 0 11 -12 15 -50 15 -38 0 -50 -4 -50 -15z m30 -160
c0 -8 9 -15 20 -15 11 0 20 7 20 15 0 11 12 15 45 15 51 0 60 -15 15 -25 -16
-4 -30 -13 -30 -21 0 -11 -16 -14 -65 -14 l-65 0 0 30 c0 27 3 30 30 30 20 0
30 -5 30 -15z m430 -160 c0 -8 7 -15 15 -15 8 0 15 -6 15 -14 0 -8 15 -15 39
-19 21 -2 49 -15 61 -27 12 -12 25 -40 27 -61 4 -24 11 -39 19 -39 9 0 14 -12
14 -35 0 -25 -4 -35 -15 -35 -9 0 -18 6 -21 14 -3 8 -17 17 -32 21 -15 4 -30
11 -33 17 -4 6 -32 13 -63 16 -39 3 -56 9 -56 18 0 8 -9 14 -20 14 -11 0 -20
7 -20 15 0 10 -10 15 -27 15 -54 0 -74 11 -67 34 9 28 7 27 53 33 25 4 41 11
41 19 0 8 7 14 15 14 8 0 15 7 15 15 0 8 9 15 20 15 11 0 20 -7 20 -15z m-360
-30 c0 -10 10 -15 30 -15 17 0 33 -6 36 -14 3 -8 16 -17 30 -20 35 -9 31 -36
-6 -36 -20 0 -30 -5 -30 -15 0 -10 -10 -15 -30 -15 -19 0 -30 -5 -30 -14 0 -9
-16 -15 -46 -19 -26 -2 -49 -9 -53 -14 -3 -5 -14 -12 -23 -16 -10 -3 -18 -13
-18 -22 0 -10 -10 -15 -30 -15 -20 0 -30 -5 -30 -15 0 -8 -7 -15 -15 -15 -8 0
-15 7 -15 15 0 8 -7 15 -15 15 -8 0 -15 7 -15 15 0 8 7 15 15 15 8 0 15 9 15
20 0 11 6 20 14 20 9 0 15 17 18 56 5 62 16 74 66 74 22 0 32 5 32 15 0 11 12
15 50 15 38 0 50 -4 50 -15z m420 -245 c0 -23 -5 -30 -19 -30 -11 0 -26 -7
-35 -15 -8 -8 -22 -15 -30 -15 -9 0 -16 -6 -16 -14 0 -7 -10 -16 -22 -20 -34
-9 -38 -8 -38 9 0 8 7 15 15 15 8 0 15 6 15 14 0 8 14 17 30 21 17 4 30 13 30
21 0 8 9 14 20 14 11 0 20 7 20 15 0 8 7 15 15 15 10 0 15 -10 15 -30z m390
15 c0 -8 9 -15 20 -15 11 0 20 -7 20 -15 0 -8 7 -15 15 -15 8 0 15 -5 15 -11
0 -7 7 -17 16 -24 13 -9 15 -21 10 -58 -4 -26 -11 -47 -17 -47 -5 0 -9 -10 -9
-22 0 -34 -11 -68 -21 -68 -5 0 -9 7 -9 15 0 8 -9 15 -20 15 -11 0 -20 7 -20
15 0 8 -6 15 -14 15 -7 0 -16 9 -19 20 -3 11 -10 20 -15 20 -15 0 -22 -38 -22
-122 0 -63 -3 -78 -15 -78 -8 0 -15 -7 -15 -15 0 -8 -7 -15 -15 -15 -8 0 -15
-9 -15 -20 0 -11 -7 -20 -15 -20 -9 0 -15 -9 -15 -25 0 -14 -7 -28 -15 -31 -8
-4 -15 -19 -15 -35 0 -24 -5 -29 -35 -35 -19 -3 -35 -10 -35 -15 0 -5 -7 -9
-15 -9 -8 0 -15 5 -15 10 0 6 7 10 15 10 10 0 15 11 15 35 0 24 5 35 15 35 10
0 15 11 15 35 0 23 5 35 14 35 20 0 26 33 26 160 0 127 -6 160 -26 160 -9 0
-14 12 -14 35 0 24 5 35 14 35 8 0 17 14 21 30 l7 30 94 0 c77 0 94 -3 94 -15z
m-940 -30 c0 -8 7 -15 15 -15 8 0 15 7 15 15 0 11 12 15 45 15 33 0 45 -4 45
-15 0 -8 9 -15 20 -15 13 0 20 -7 20 -20 0 -11 7 -20 15 -20 10 0 15 -10 15
-30 0 -20 5 -30 15 -30 8 0 15 -7 15 -15 0 -8 6 -15 14 -15 8 0 17 -13 21 -29
5 -22 14 -31 36 -36 25 -6 29 -11 29 -41 0 -24 -5 -34 -15 -34 -26 0 -16 -18
14 -25 22 -5 31 -14 36 -36 4 -16 10 -29 15 -29 5 0 11 -13 15 -30 4 -16 13
-30 21 -30 10 0 14 -13 14 -50 0 -38 -4 -50 -15 -50 -8 0 -15 -6 -15 -14 0 -7
-9 -16 -20 -19 -11 -3 -20 -12 -20 -21 0 -9 -7 -16 -15 -16 -8 0 -15 -7 -15
-15 0 -8 -7 -15 -15 -15 -8 0 -15 -7 -15 -15 0 -8 -7 -15 -15 -15 -8 0 -15 -9
-15 -20 0 -13 -7 -20 -20 -20 -11 0 -20 -4 -20 -10 0 -5 -13 -10 -30 -10 -16
0 -30 5 -30 10 0 6 7 10 15 10 8 0 15 9 15 20 0 11 7 20 15 20 8 0 15 7 15 15
0 8 -7 15 -15 15 -8 0 -15 7 -15 15 0 8 -7 15 -15 15 -8 0 -15 6 -15 14 0 8
-14 18 -32 21 -17 4 -38 14 -46 21 -7 8 -29 14 -48 14 -27 0 -34 -4 -34 -20 0
-16 7 -20 30 -20 20 0 30 -5 30 -15 0 -11 12 -15 50 -15 38 0 50 -4 50 -15 0
-8 7 -15 15 -15 8 0 15 -7 15 -15 0 -10 -11 -15 -35 -15 -24 0 -35 5 -35 15 0
11 -12 15 -45 15 -32 0 -45 4 -45 14 0 15 -42 26 -96 26 -30 0 -34 3 -34 25 0
16 -6 25 -15 25 -8 0 -15 9 -15 20 0 16 7 20 30 20 20 0 30 -5 30 -15 0 -8 7
-15 15 -15 8 0 15 7 15 15 0 8 -7 15 -15 15 -8 0 -15 7 -15 15 0 8 -7 15 -15
15 -10 0 -15 11 -15 35 0 24 5 35 15 35 11 0 15 12 15 45 0 33 -4 45 -15 45
-12 0 -15 14 -15 64 0 58 2 64 23 70 35 9 47 7 47 -9 0 -8 3 -15 8 -15 4 0 17
-3 30 -6 15 -5 22 -2 22 9 0 8 -13 17 -29 20 -22 5 -31 13 -36 37 -4 16 -13
30 -21 30 -8 0 -14 7 -14 15 0 10 -10 15 -30 15 -28 0 -30 3 -30 35 0 24 5 35
15 35 8 0 15 -9 15 -20 0 -11 7 -20 15 -20 10 0 15 11 15 35 0 33 2 35 35 35
24 0 35 -5 35 -15z m680 0 c0 -10 -11 -15 -35 -15 -24 0 -35 5 -35 15 0 10 11
15 35 15 24 0 35 -5 35 -15z m-950 -165 c0 -5 -4 -10 -10 -10 -5 0 -10 5 -10
10 0 6 5 10 10 10 6 0 10 -4 10 -10z m-155 -120 c12 -19 -6 -120 -21 -120 -11
0 -14 16 -14 65 0 50 3 65 14 65 8 0 18 -5 21 -10z m155 -5 c0 -8 -4 -15 -10
-15 -5 0 -10 7 -10 15 0 8 5 15 10 15 6 0 10 -7 10 -15z m-220 -35 c0 -5 -7
-10 -15 -10 -8 0 -15 5 -15 10 0 6 7 10 15 10 8 0 15 -4 15 -10z m1230 -260
c0 -5 -4 -10 -10 -10 -5 0 -10 5 -10 10 0 6 5 10 10 10 6 0 10 -4 10 -10z
m-190 -35 c0 -8 -7 -15 -15 -15 -8 0 -15 7 -15 15 0 8 7 15 15 15 8 0 15 -7
15 -15z m-557 -71 c4 -8 14 -14 22 -14 7 0 15 -5 17 -11 2 -5 22 -13 46 -16
59 -8 57 -33 -3 -33 -33 0 -45 4 -45 15 0 10 -10 15 -31 15 -22 0 -32 5 -36
20 -3 11 -9 20 -14 20 -5 0 -9 7 -9 16 0 19 40 9 53 -12z m397 11 c0 -8 7 -15
15 -15 8 0 15 -6 15 -14 0 -15 30 -26 73 -26 17 0 27 -5 27 -15 0 -11 -12 -15
-50 -15 -38 0 -50 4 -50 15 0 10 -10 15 -30 15 -20 0 -30 -5 -30 -15 0 -8 7
-15 15 -15 8 0 15 -7 15 -15 0 -8 7 -15 15 -15 8 0 15 -9 15 -20 0 -11 7 -20
15 -20 8 0 15 -7 15 -15 0 -8 7 -15 15 -15 8 0 15 -7 15 -15 0 -8 7 -15 15
-15 8 0 15 -7 15 -15 0 -8 -7 -15 -15 -15 -8 0 -15 -7 -15 -15 0 -8 -7 -15
-15 -15 -8 0 -15 -7 -15 -15 0 -8 -7 -15 -15 -15 -8 0 -15 -9 -15 -20 0 -11
-7 -20 -15 -20 -8 0 -15 -7 -15 -15 0 -12 -18 -15 -100 -15 -82 0 -100 3 -100
15 0 8 -7 15 -15 15 -8 0 -15 7 -15 15 0 8 -7 15 -15 15 -8 0 -15 7 -15 15 0
10 10 15 30 15 18 0 30 -5 30 -13 0 -14 120 -22 173 -11 31 6 37 24 7 24 -11
0 -20 7 -20 15 0 9 -12 18 -30 22 -25 4 -30 10 -30 34 0 19 -5 29 -15 29 -12
0 -15 14 -15 70 0 56 3 70 15 70 8 0 15 7 15 15 0 8 6 15 14 15 8 0 16 7 20
15 3 9 18 15 36 15 20 0 30 -5 30 -15z m220 -19 c0 -16 -7 -26 -22 -30 -34 -9
-38 -8 -38 9 0 8 7 15 15 15 9 0 18 7 21 15 9 23 24 18 24 -9z"/>
<path d="M1600 1155 c0 -8 5 -15 10 -15 6 0 10 7 10 15 0 8 -4 15 -10 15 -5 0
-10 -7 -10 -15z"/>
<path d="M810 1055 c0 -12 14 -15 65 -15 51 0 65 -3 65 -15 0 -10 11 -15 35
-15 32 0 35 2 35 30 l0 30 -100 0 c-82 0 -100 -3 -100 -15z"/>
<path d="M1107 453 c-4 -3 -7 -19 -7 -35 0 -21 5 -28 20 -28 11 0 20 -7 20
-15 0 -10 11 -15 35 -15 24 0 35 5 35 15 0 8 -9 15 -20 15 -11 0 -20 7 -20 15
0 8 -6 15 -14 15 -7 0 -16 9 -19 20 -5 20 -18 26 -30 13z"/>
<path d="M508 1753 c-23 -6 -25 -63 -3 -63 8 0 15 6 15 14 0 7 9 16 21 19 12
3 19 12 17 19 -5 14 -23 18 -50 11z"/>
<path d="M360 1400 c0 -20 5 -30 15 -30 10 0 15 10 15 30 0 20 -5 30 -15 30
-10 0 -15 -10 -15 -30z"/>
<path d="M1890 925 c0 -8 5 -15 10 -15 6 0 10 7 10 15 0 8 -4 15 -10 15 -5 0
-10 -7 -10 -15z"/>
<path d="M1860 760 c0 -13 -7 -20 -20 -20 -11 0 -20 -7 -20 -15 0 -8 -7 -15
-15 -15 -8 0 -15 -7 -15 -15 0 -8 -7 -15 -15 -15 -8 0 -15 -7 -15 -15 0 -10
10 -15 30 -15 20 0 30 5 30 15 0 8 7 15 15 15 8 0 15 9 15 20 0 11 7 20 15 20
10 0 15 10 15 30 0 17 -4 30 -10 30 -5 0 -10 -9 -10 -20z"/>
<path d="M1690 536 c0 -36 -4 -45 -21 -49 -15 -4 -20 -11 -15 -22 3 -9 6 -30
6 -46 0 -19 5 -29 15 -29 10 0 15 10 15 30 0 20 5 30 15 30 8 0 15 7 15 15 0
9 7 18 15 21 8 4 15 12 15 20 0 8 -7 14 -15 14 -10 0 -15 10 -15 30 0 20 -5
30 -15 30 -11 0 -15 -12 -15 -44z"/>
</g>
</svg>
