<?xml version="1.0" standalone="no"?>
<!DOCTYPE svg PUBLIC "-//W3C//DTD SVG 20010904//EN"
 "http://www.w3.org/TR/2001/REC-SVG-20010904/DTD/svg10.dtd">
<svg version="1.0" xmlns="http://www.w3.org/2000/svg"
 width="208.000000pt" height="208.000000pt" viewBox="0 0 208.000000 208.000000"
 preserveAspectRatio="xMidYMid meet">

<g transform="translate(0.000000,208.000000) scale(0.100000,-0.100000)"
fill="#000000" stroke="none">
<path d="M1170 1605 c0 -8 -9 -15 -20 -15 -11 0 -20 -7 -20 -15 0 -9 -9 -15
-25 -15 -16 0 -25 -6 -25 -15 0 -8 5 -15 10 -15 6 0 10 -45 10 -115 l0 -115
-30 0 c-20 0 -30 5 -30 15 0 8 -9 15 -19 15 -11 0 -26 7 -35 15 -8 8 -29 18
-45 21 -17 4 -31 13 -31 20 0 8 -7 14 -15 14 -8 0 -15 7 -15 15 0 10 -11 15
-35 15 -24 0 -35 5 -35 15 0 8 -7 15 -15 15 -8 0 -15 -7 -15 -15 0 -8 -9 -15
-20 -15 -11 0 -20 -7 -20 -15 0 -10 -10 -15 -30 -15 -20 0 -30 -5 -30 -15 0
-11 -12 -15 -50 -15 -38 0 -54 -5 -67 -20 -10 -11 -23 -20 -30 -20 -7 0 -13
-7 -13 -15 0 -8 -7 -15 -15 -15 -10 0 -15 10 -15 30 0 20 5 30 15 30 8 0 15 9
15 20 0 11 -7 20 -15 20 -8 0 -15 -9 -15 -20 0 -16 -7 -20 -35 -20 -24 0 -35
5 -35 15 0 8 -7 15 -15 15 -9 0 -15 -9 -15 -25 0 -16 -6 -25 -15 -25 -8 0 -15
5 -15 10 0 6 -7 10 -15 10 -8 0 -15 -7 -15 -15 0 -8 7 -15 15 -15 8 0 15 -7
15 -15 0 -8 -7 -15 -15 -15 -8 0 -15 7 -15 15 0 10 -11 15 -35 15 -24 0 -35
-5 -35 -15 0 -11 -12 -15 -45 -15 -25 0 -45 -1 -46 -2 0 -2 -3 -54 -6 -115
l-5 -113 36 0 c24 0 36 5 36 14 0 8 13 17 30 21 16 4 30 13 30 21 0 9 11 14
35 14 24 0 35 5 35 15 0 8 7 15 15 15 8 0 15 7 15 15 0 10 10 15 30 15 17 0
33 6 36 14 3 8 19 18 35 21 16 4 29 13 29 21 0 8 9 14 20 14 11 0 20 7 20 15
0 22 47 19 52 -2 7 -29 -4 -213 -12 -213 -5 0 -11 -13 -15 -30 -4 -16 -13 -30
-21 -30 -8 0 -14 -6 -14 -14 0 -8 -13 -17 -29 -21 -16 -3 -32 -13 -35 -21 -3
-8 -16 -14 -30 -14 -25 0 -36 -21 -36 -72 0 -18 -5 -28 -15 -28 -13 0 -15 -30
-15 -210 0 -201 1 -210 19 -210 11 0 26 7 35 15 8 8 22 15 30 15 9 0 16 7 16
15 0 8 14 17 35 21 20 3 35 12 35 20 0 9 11 14 30 14 20 0 30 5 30 15 0 10 10
15 30 15 18 0 33 6 36 15 4 8 17 15 30 15 12 0 27 8 32 17 14 24 132 33 132 9
0 -19 26 -22 32 -3 3 8 35 13 101 15 75 3 97 7 97 18 0 11 18 14 80 14 64 0
80 3 80 15 0 8 7 15 15 15 8 0 15 7 15 15 0 12 14 15 65 15 51 0 65 -3 65 -15
0 -8 7 -15 15 -15 8 0 15 -7 15 -15 0 -8 9 -15 20 -15 16 0 20 -7 20 -36 0
-33 2 -36 23 -30 12 3 25 6 30 6 4 0 7 7 7 15 0 10 11 15 35 15 24 0 35 5 35
15 0 10 10 15 30 15 19 0 30 5 30 14 0 8 13 17 29 21 16 3 32 13 35 21 3 8 19
14 36 14 20 0 30 5 30 15 0 8 9 15 20 15 11 0 20 7 20 15 0 10 10 15 30 15 43
0 39 26 -5 34 -19 4 -35 11 -35 16 0 6 -7 10 -15 10 -8 0 -15 7 -15 15 0 8
-14 17 -35 21 -20 3 -35 12 -35 20 0 9 -11 14 -30 14 -20 0 -30 5 -30 15 0 8
-7 15 -15 15 -9 0 -18 6 -21 14 -3 8 -19 18 -35 21 -16 4 -29 13 -29 21 0 9
-11 14 -30 14 -20 0 -30 5 -30 15 0 8 -7 15 -15 15 -12 0 -15 17 -15 93 0 122
-5 137 -41 137 -26 0 -29 4 -29 30 0 20 -5 30 -15 30 -8 0 -15 9 -15 20 0 11
-6 20 -14 20 -9 0 -15 19 -19 61 -3 34 -10 65 -15 68 -6 3 -14 19 -17 34 -4
15 -13 27 -21 27 -8 0 -14 7 -14 15 0 8 -9 15 -19 15 -11 0 -26 7 -35 15 -8 8
-28 15 -45 15 -21 0 -31 -5 -31 -15z m-750 -350 c0 -8 -7 -15 -15 -15 -8 0
-15 7 -15 15 0 8 7 15 15 15 8 0 15 -7 15 -15z m706 5 c8 0 14 -7 14 -15 0 -8
7 -15 15 -15 8 0 15 -7 15 -15 0 -10 10 -15 30 -15 20 0 30 -5 30 -15 0 -10
-10 -15 -30 -15 -20 0 -30 -5 -30 -15 0 -8 -7 -15 -15 -15 -8 0 -15 -7 -15
-15 0 -8 -6 -15 -12 -15 -7 0 -22 -3 -34 -6 -19 -5 -20 -1 -22 72 -2 84 2 98
25 90 8 -3 21 -6 29 -6z m-86 -10 c0 -5 -7 -10 -15 -10 -8 0 -15 5 -15 10 0 6
7 10 15 10 8 0 15 -4 15 -10z m-30 -35 c0 -8 7 -15 15 -15 8 0 15 -7 15 -15 0
-8 -7 -15 -15 -15 -8 0 -15 -9 -15 -20 0 -11 7 -20 15 -20 8 0 15 -4 15 -10 0
-5 -13 -10 -30 -10 -20 0 -30 5 -30 15 0 10 -11 15 -35 15 -32 0 -35 2 -35 30
0 27 3 30 30 30 20 0 30 5 30 15 0 8 9 15 20 15 11 0 20 -7 20 -15z m-102
-126 c2 -5 19 -11 38 -15 29 -5 34 -10 34 -35 0 -28 -2 -29 -50 -29 -36 0 -52
-4 -56 -15 -4 -8 -10 -15 -14 -15 -10 0 -19 71 -13 104 5 22 9 25 32 19 14 -3
27 -10 29 -14z m327 -47 c0 -52 -3 -62 -17 -62 -10 0 -18 4 -18 9 0 5 -13 12
-30 16 -16 4 -30 13 -30 21 0 8 -7 14 -15 14 -8 0 -15 7 -15 15 0 10 10 15 30
15 19 0 30 5 30 14 0 14 32 26 55 21 6 -1 10 -29 10 -63z m-135 -51 c0 -5 16
-12 35 -15 21 -4 35 -13 35 -21 0 -10 10 -15 30 -15 26 0 30 -3 30 -29 0 -25
-5 -31 -30 -36 -16 -4 -30 -11 -30 -16 0 -5 -7 -9 -15 -9 -8 0 -15 -7 -15 -15
0 -8 -6 -15 -12 -15 -7 0 -23 -3 -35 -6 -22 -6 -23 -4 -23 74 0 44 3 87 6 96
7 17 24 22 24 7z m-82 -17 c25 -7 31 -34 7 -34 -8 0 -15 -7 -15 -15 0 -8 7
-15 15 -15 8 0 15 -7 15 -15 0 -8 -7 -15 -15 -15 -8 0 -15 -9 -15 -20 0 -11
-6 -20 -13 -20 -7 0 -20 9 -30 20 -9 11 -26 20 -37 20 -16 0 -20 7 -20 30 0
20 5 30 15 30 8 0 15 6 15 14 0 21 38 30 78 20z m442 -59 l0 -65 -44 0 c-30 0
-46 5 -50 15 -3 9 -18 15 -36 15 -20 0 -30 5 -30 15 0 8 7 15 15 15 8 0 15 7
15 15 0 10 11 15 35 15 24 0 35 5 35 14 0 13 16 22 48 25 8 1 12 -18 12 -64z
m-450 -150 c0 -8 -7 -15 -15 -15 -8 0 -15 7 -15 15 0 8 7 15 15 15 8 0 15 -7
15 -15z m-40 -35 c0 -5 -7 -10 -15 -10 -8 0 -15 5 -15 10 0 6 7 10 15 10 8 0
15 -4 15 -10z m-100 -65 c0 -8 -4 -15 -10 -15 -5 0 -10 7 -10 15 0 8 5 15 10
15 6 0 10 -7 10 -15z"/>
</g>
</svg>
