<?xml version="1.0" encoding="UTF-8"?>
<svg version="1.1" xmlns="http://www.w3.org/2000/svg" width="512" height="512">
<path d="M0 0 C2.59729509 2.31710743 5.13711895 4.68292023 7.66015625 7.08105469 C10.16735285 9.47708274 10.16735285 9.47708274 12.84765625 11.55371094 C16.45412744 14.45677121 19.22241494 17.93649032 22.2109375 21.45605469 C23.02691406 22.37257813 23.84289062 23.28910156 24.68359375 24.23339844 C32.45702821 33.03968675 38.9758093 42.51331495 45.2109375 52.45605469 C45.62085938 53.10380859 46.03078125 53.7515625 46.453125 54.41894531 C57.81383737 72.62277134 65.37892985 93.61419891 70.2109375 114.45605469 C70.41976563 115.33970703 70.62859375 116.22335938 70.84375 117.13378906 C76.77177028 143.49096784 77.20018589 175.03448273 71.2109375 201.45605469 C70.91292236 202.80908691 70.91292236 202.80908691 70.60888672 204.18945312 C66.076828 224.23914509 59.12436039 243.43421336 49.2109375 261.45605469 C48.86981934 262.07641602 48.52870117 262.69677734 48.17724609 263.3359375 C40.11801083 277.7727418 30.23633545 291.00755141 18.73291016 302.8828125 C17.66372048 303.98801915 16.6014828 305.09997313 15.54443359 306.21679688 C-6.96054332 329.96476308 -34.73450712 347.07036668 -65.4765625 358.20605469 C-66.16500244 358.45846924 -66.85344238 358.71088379 -67.56274414 358.97094727 C-70.95249481 360.12751111 -73.39405255 360.86562844 -76.7890625 359.45605469 C-75.1390625 359.12605469 -73.4890625 358.79605469 -71.7890625 358.45605469 C-71.82738155 348.95335372 -71.88711696 339.45108338 -71.97296524 329.94869232 C-72.01219694 325.53462911 -72.04450289 321.12075814 -72.06005859 316.70654297 C-72.07538756 312.43335313 -72.11011279 308.16069274 -72.15737152 303.88774109 C-72.1720202 302.27101793 -72.18009383 300.65421911 -72.18094635 299.03742981 C-72.20134575 279.71913617 -76.23075936 263.57363288 -88.7890625 248.45605469 C-89.995625 246.94011719 -89.995625 246.94011719 -91.2265625 245.39355469 C-91.7421875 244.75417969 -92.2578125 244.11480469 -92.7890625 243.45605469 C-88.93540678 242.12762057 -85.06513239 240.97636446 -81.1315918 239.90991211 C-55.62810792 232.85487066 -32.42956075 219.78774882 -18.7890625 196.45605469 C-16.77855193 192.54084989 -15.17866112 188.63029996 -13.7890625 184.45605469 C-13.47066406 183.50988281 -13.15226562 182.56371094 -12.82421875 181.58886719 C-6.74477739 160.01665593 -10.9926676 135.82363333 -21.7890625 116.45605469 C-25.28966215 110.84454067 -29.10348632 105.14163086 -33.7890625 100.45605469 C-33.55786133 97.77832031 -33.55786133 97.77832031 -32.93359375 94.36230469 C-31.74858678 86.88808536 -31.44976227 79.62852294 -31.47338867 72.06982422 C-31.47656084 69.95716184 -31.45292385 67.84589072 -31.42773438 65.73339844 C-31.39171226 57.55031589 -32.17326653 50.20804026 -34.14379883 42.23144531 C-34.7890625 39.45605469 -34.7890625 39.45605469 -34.7890625 36.45605469 C-53.77790454 39.33468234 -72.69784281 45.23585943 -86.6640625 59.08105469 C-90.1710287 62.33567461 -90.1710287 62.33567461 -92.734375 62.83496094 C-95.17669062 62.60744484 -97.41004106 62.06180837 -99.7890625 61.45605469 C-102.43294016 60.93617548 -105.07504495 60.43324392 -107.7265625 59.95605469 C-108.82653564 59.75786133 -108.82653564 59.75786133 -109.94873047 59.55566406 C-129.5178208 56.16554369 -149.77842541 57.01696654 -169.046875 61.87011719 C-171.81330715 62.46123517 -173.9794593 62.81187614 -176.7890625 62.45605469 C-178.71875 61.02246094 -178.71875 61.02246094 -180.6640625 59.01855469 C-195.15820115 45.4827062 -213.54517215 39.37334658 -232.7890625 36.45605469 C-233.10213636 38.16428295 -233.41449258 39.87264274 -233.7265625 41.58105469 C-233.90058594 42.53238281 -234.07460937 43.48371094 -234.25390625 44.46386719 C-234.51880859 45.945 -234.51880859 45.945 -234.7890625 47.45605469 C-235.04683472 48.82093018 -235.04683472 48.82093018 -235.30981445 50.21337891 C-236.10386136 55.5860386 -236.01390942 60.96148083 -236.02929688 66.38427734 C-236.03890649 68.42295682 -236.0699358 70.46058392 -236.1015625 72.49902344 C-236.15118264 79.29528275 -235.69580921 85.44599329 -234.00390625 92.05761719 C-232.58928385 98.00425502 -232.58928385 98.00425502 -234.40234375 102.10449219 C-235.29308594 103.00425781 -236.18382812 103.90402344 -237.1015625 104.83105469 C-238.05924448 105.88884742 -239.00556353 106.95701737 -239.94140625 108.03417969 C-240.42206543 108.58267578 -240.90272461 109.13117188 -241.39794922 109.69628906 C-255.04675602 126.96210153 -258.30248382 150.22557909 -256.7890625 171.45605469 C-254.26575802 191.90293312 -242.70698213 208.86276384 -226.7890625 221.45605469 C-211.71587716 232.36724109 -193.85315553 238.6212193 -175.7890625 242.45605469 C-175.7890625 245.45605469 -175.7890625 245.45605469 -177.29296875 247.22558594 C-177.97230469 247.89976562 -178.65164062 248.57394531 -179.3515625 249.26855469 C-186.47430601 257.05944936 -190.33904311 266.00563229 -192.6640625 276.14355469 C-194.24216986 281.94293689 -194.24216986 281.94293689 -196.43359375 283.99902344 C-198.96285361 285.02910441 -201.05612119 285.27120057 -203.7890625 285.45605469 C-205.09101563 285.57335937 -206.39296875 285.69066406 -207.734375 285.81152344 C-218.46147407 286.46629758 -226.30777815 284.51919183 -234.94921875 277.76855469 C-240.31531629 272.8185164 -244.36442328 266.70522977 -248.4921875 260.72558594 C-251.75385631 256.08270023 -254.54620475 252.29579402 -259.3515625 249.20605469 C-260.11597656 248.70589844 -260.88039063 248.20574219 -261.66796875 247.69042969 C-265.52905962 245.44345968 -268.59342768 245.34642421 -272.9765625 245.39355469 C-274.60658203 245.40708984 -274.60658203 245.40708984 -276.26953125 245.42089844 C-277.10097656 245.4325 -277.93242187 245.44410156 -278.7890625 245.45605469 C-278.7890625 246.44605469 -278.7890625 247.43605469 -278.7890625 248.45605469 C-277.768125 248.76542969 -277.768125 248.76542969 -276.7265625 249.08105469 C-268.1680502 253.08716683 -262.30356197 260.79665676 -258.99609375 269.55615234 C-257.94344915 272.65196942 -256.9613782 275.76736115 -255.98583984 278.88818359 C-254.03925489 285.00952804 -251.62429058 290.25869271 -247.7890625 295.45605469 C-247.26699219 296.17019531 -246.74492187 296.88433594 -246.20703125 297.62011719 C-239.4636432 306.05330037 -230.37601188 310.72786953 -219.7890625 312.45605469 C-211.47919339 313.1513027 -204.09874873 311.84100239 -195.7890625 310.45605469 C-195.7890625 326.29605469 -195.7890625 342.13605469 -195.7890625 358.45605469 C-194.1390625 358.78605469 -192.4890625 359.11605469 -190.7890625 359.45605469 C-194.09711416 360.56780002 -195.9531302 360.35113929 -199.21875 359.19042969 C-200.08532227 358.88331055 -200.95189453 358.57619141 -201.84472656 358.25976562 C-202.77510742 357.91204102 -203.70548828 357.56431641 -204.6640625 357.20605469 C-205.63569336 356.84543945 -206.60732422 356.48482422 -207.60839844 356.11328125 C-232.04467087 346.78736085 -252.91702679 333.28322976 -272.7890625 316.45605469 C-273.62308594 315.76511719 -274.45710938 315.07417969 -275.31640625 314.36230469 C-279.21489495 311.069915 -282.60483277 307.55390031 -285.89453125 303.65527344 C-287.2325615 302.10205482 -288.61516047 300.58670552 -290.02734375 299.10058594 C-321.536401 265.88290357 -341.57622485 217.3543541 -342.02734375 171.48730469 C-342.03718292 170.65758652 -342.04702209 169.82786835 -342.05715942 168.9730072 C-342.58669149 112.70776415 -326.24473382 62.94826914 -288.7890625 20.45605469 C-288.06847656 19.61300781 -287.34789062 18.76996094 -286.60546875 17.90136719 C-282.3281535 12.94868637 -277.79352636 8.65912229 -272.7890625 4.45605469 C-271.87769531 3.64523438 -270.96632813 2.83441406 -270.02734375 1.99902344 C-261.21760536 -5.78210928 -251.7382398 -12.3047801 -241.7890625 -18.54394531 C-241.14130859 -18.95386719 -240.49355469 -19.36378906 -239.82617188 -19.78613281 C-167.09379365 -65.17722959 -64.49038523 -55.65463922 0 0 Z " fill="#FFFFFF" transform="translate(389.7890625,95.5439453125)"/>
<path d="M0 0 C2.31 0 4.62 0 7 0 C7 0.33 7 0.66 7 1 C4.69 1 2.38 1 0 1 C0 0.67 0 0.34 0 0 Z " fill="#FFFFFF" transform="translate(284,461)"/>
<path d="M0 0 C2.31 0 4.62 0 7 0 C7 0.33 7 0.66 7 1 C4.69 1 2.38 1 0 1 C0 0.67 0 0.34 0 0 Z " fill="#FFFFFF" transform="translate(221,461)"/>
<path d="M0 0 C1.65 0 3.3 0 5 0 C5 0.33 5 0.66 5 1 C3.35 1 1.7 1 0 1 C0 0.67 0 0.34 0 0 Z " fill="#FFFFFF" transform="translate(279,462)"/>
<path d="M0 0 C1.65 0 3.3 0 5 0 C5 0.33 5 0.66 5 1 C3.35 1 1.7 1 0 1 C0 0.67 0 0.34 0 0 Z " fill="#FFFFFF" transform="translate(228,462)"/>
<path d="M0 0 C1.65 0 3.3 0 5 0 C5 0.33 5 0.66 5 1 C3.35 1 1.7 1 0 1 C0 0.67 0 0.34 0 0 Z " fill="#FFFFFF" transform="translate(291,460)"/>
<path d="M0 0 C1.65 0 3.3 0 5 0 C5 0.33 5 0.66 5 1 C3.35 1 1.7 1 0 1 C0 0.67 0 0.34 0 0 Z " fill="#FFFFFF" transform="translate(216,460)"/>
<path d="M0 0 C1.32 0.33 2.64 0.66 4 1 C2.68 1.33 1.36 1.66 0 2 C0 1.34 0 0.68 0 0 Z " fill="#FFFFFF" transform="translate(309,456)"/>
<path d="M0 0 C1.32 0 2.64 0 4 0 C3.67 0.66 3.34 1.32 3 2 C2.01 1.34 1.02 0.68 0 0 Z " fill="#FFFFFF" transform="translate(199,456)"/>
<path d="M0 0 C0.99 0.33 1.98 0.66 3 1 C2.01 1.33 1.02 1.66 0 2 C0 1.34 0 0.68 0 0 Z " fill="#FFFFFF" transform="translate(305,457)"/>
<path d="M0 0 C0.99 0 1.98 0 3 0 C2.67 0.66 2.34 1.32 2 2 C1.34 1.34 0.68 0.68 0 0 Z " fill="#FFFFFF" transform="translate(204,457)"/>
<path d="M0 0 C3 1 3 1 3 1 Z " fill="#FFFFFF" transform="translate(263,463)"/>
<path d="M0 0 C3 1 3 1 3 1 Z " fill="#FFFFFF" transform="translate(246,463)"/>
<path d="" fill="#FFFFFF" transform="translate(0,0)"/>
<path d="" fill="#FFFFFF" transform="translate(0,0)"/>
<path d="" fill="#FFFFFF" transform="translate(0,0)"/>
<path d="" fill="#FFFFFF" transform="translate(0,0)"/>
<path d="" fill="#FFFFFF" transform="translate(0,0)"/>
<path d="" fill="#FFFFFF" transform="translate(0,0)"/>
<path d="" fill="#FFFFFF" transform="translate(0,0)"/>
<path d="" fill="#FFFFFF" transform="translate(0,0)"/>
</svg>
